<?xml version="1.0" encoding="utf-8"?>
<svg viewBox="0 0 700 700" xmlns="http://www.w3.org/2000/svg" xmlns:bx="https://boxy-svg.com">
  <title>lpld.io</title>
  <defs>
    <bx:grid x="0" y="0" width="25" height="25"/>
    <mask id="mask-0">
      <g style="" transform="matrix(0.707107, -0.707107, 0.707107, 0.707107, -144.974899, 328.553497)" bx:origin="0 1">
        <title>Letters</title>
        <path style="stroke-width: 16px; fill: rgb(255, 255, 255); stroke: rgb(0, 0, 0);" d="M 100 150 C 100 125 125 100 150 100 L 200 100 L 200 500 L 300 500 L 300 600 L 100 600 L 100 150 Z">
          <title>L</title>
        </path>
        <polygon style="stroke-width: 16px; fill: rgb(255, 255, 255); stroke: rgb(0, 0, 0);" points="200 100 400 100 400 300 300 300 300 500 200 500">
          <title>P</title>
        </polygon>
        <path style="stroke-width: 16px; fill: rgb(255, 255, 255); stroke: rgb(0, 0, 0);" d="M 300 300 L 400 300 L 400 500 L 600 500 L 600 550 C 600 575 575 600 550 600 L 300 600 L 300 300 Z">
          <title>L</title>
        </path>
        <path style="stroke-width: 16px; fill: rgb(255, 255, 255); stroke: rgb(0, 0, 0);" d="M 500 100 C 550 100 600 150 600 200 L 600 500 L 400 500 L 400 100 L 500 100 Z">
          <title>D</title>
        </path>
      </g>
    </mask>
  </defs>
  <rect width="700" height="700" style="mask: url(#mask-0);" fill="currentColor"/>
</svg>
