<svg viewBox="0 0 770.02045 772.77509" xmlns="http://www.w3.org/2000/svg"><path d="m-114.9155-141.1561h1000v1000h-1000z" fill="none"/><g fill="currentColor" stroke="#fff" transform="translate(-114.9155 -141.1561)"><g stroke-linecap="square" stroke-width="20"><path d="m673.948 551.892 138.866-138.866s22.457 22.456 44.548 44.548c11.252 11.252 17.574 26.513 17.574 42.426s-6.322 31.174-17.574 42.426c-65.41 65.41-183.414 183.414-183.414 183.414l-225.84-225.84 86.974-86.974z"/><path d="m187.035 412.875 173.948-173.948 174.099 174.099-86.974 86.974 138.866 138.866-86.974 86.974z"/><path d="m500 725.84 86.974-86.974 86.974 86.974-173.948 173.949s-254.63-254.63-357.574-357.574c-23.431-23.431-23.431-61.421 0-84.853 22.092-22.091 44.548-44.548 44.548-44.548z"/></g><path d="m-70.71 600.308c0-16.685-4.666-32.687-12.971-44.485-8.306-11.799-19.57-18.427-31.316-18.427h-26.423l.574 227.137 70.136-.865z" stroke-width="8.33" transform="matrix(1.96388 -1.96388 1.38247 1.38247 -104.068 -781.589)"/></g></svg>
