<svg viewBox="3.496 -36.204 145 30.6" xmlns="http://www.w3.org/2000/svg"><g transform="translate(3.496057 -37.104473)"><path d="m1.9 12.8c.3 0 .7-.5 1.6-1.4 6.2-5.8 15.2-9.2 21.5-9.2 4.6 0 6.5 2.3 6.5 5.2 0 2.1-1 4.4-2.7 6.7h3.1c1.2-2.2 1.8-4.4 1.8-6.5 0-3.4-2.2-6.7-8.2-6.7-12.2 0-24 9.8-24 11.4.1.4.2.5.4.5" fill="#ffb81c"/><path d="m23.9 19.3c-5.5 4.8-12.9 8.6-17.7 8.6-2.2 0-3.7-1-3.7-2.8 0-1.1.5-2.1 1.2-3.1.5.5 1.6.9 2.9.9 5.6 0 11.8-4.4 11.8-7.4 0-.9-.8-1.8-2.5-1.8-2.8 0-7.8 2.3-11.3 5.4-.4-1 .3-2.7 1.6-4.1 2.8-3 8.1-5.7 11-5.7.3 0 .4.1.4.3s-.4.4-.4.7c0 .2.1.3.4.3.5 0 1.2-.8 1.2-1.5 0-.5-.4-.9-1.2-.9-3 0-8.9 2.6-12.4 6-2.1 2-3.3 4.6-2.3 6.6-1.8 1.9-2.9 4-2.9 6.2 0 2.6 2 4.5 5.6 4.5 5.8 0 12.2-3 17.4-7.1zm-8.4-4.5c.8 0 1.1.4 1.1.8 0 1.7-5.2 5.2-9.5 5.2-.9 0-1.7-.3-1.9-.6 3-3 7.8-5.4 10.3-5.4z" fill="#ffb81c"/><path d="m67 22.4c2.2-.7 3.2-2.6 3.2-4.4 0-2.1-1.6-3.8-4.7-3.8h-9l-3 16.8h9.9c2.8 0 5.3-1.9 5.8-4.7v-.7c.1-1.6-.8-2.8-2.2-3.2zm-4.7 4.6h-2.9l.5-2.8h2.8c.7 0 1.4.3 1.4 1.1 0 1-.8 1.7-1.8 1.7zm1.3-6.4h-3.1l.5-2.8h3c.7 0 1.3.3 1.3 1.1 0 1-.8 1.7-1.7 1.7zm-13.7-6.5-1.4 8.4-4.8-8.4h-4.3l-3 16.8h4.7l1.5-8.8 4.9 8.8h4l3-16.8zm-21.7 10.4h6.2l.7-4h-6.2l.4-2.4h7.8l.7-4h-13l-3 16.8h13l.7-4h-7.8zm88.6.4h2.4c-.2 1.6-.9 2.4-2.6 2.4-1.2 0-1.9-.6-1.9-1.8v-.6l.9-5c.3-1.4 1.4-2.2 2.8-2.2 1 0 1.9.5 1.9 1.6 0 .2 0 .5-.1.7h4.8c.1-.5.2-1.1.2-1.6.1-3.5-3.6-4.8-6.4-4.8-4.4 0-7.7 2.3-8.4 6.4l-.9 4.9c-.1.4-.1.9-.1 1.3 0 3.7 3.2 5.2 6.4 5.2 3.5 0 7.5-1.9 8.2-5.7.3-1.4.5-2.8.7-4.2h-7.4zm27.3-9.5c0-.2-.2-.5-.5-.5h-.6v1.4h.2v-.5h.4l.3.5h.3l-.3-.5s.2-.2.2-.4zm-.6.3h-.3v-.5h.3c.2 0 .3.1.3.3 0 .1-.1.2-.3.2zm-18.6 15.2h13l.7-4h-7.8l.4-2.4h6.2l.7-4h-6.2l.4-2.4h7.8l.7-4h-13zm-38.9-12c0-3.2-2.4-4.8-5.4-4.8h-8l-3 16.8h5.2l1-5.6h1.4l1.9 5.6h5.3l-2.2-6.1c2.4-.7 3.8-3.2 3.8-5.9zm-7.3 2.9h-2.3l.6-3.8h2.1c.9 0 1.8.5 1.8 1.5.1 1.3-.9 2.3-2.2 2.3zm64.7-7.6c-1 0-1.6.7-1.6 1.5s.6 1.5 1.6 1.5 1.6-.7 1.6-1.5-.6-1.5-1.6-1.5zm0 2.9c-.9 0-1.4-.6-1.4-1.4s.5-1.4 1.4-1.4 1.4.6 1.4 1.4-.5 1.4-1.4 1.4zm-54.9-3-3 16.8h5.2l3-16.8zm14.4 0h-7.4l-3 16.8h7.5c4 0 7.2-1.4 8-5.6.3-1.7.7-3.5.9-5.2.1-.4.1-.8.1-1.2 0-3.4-3.1-4.8-6.1-4.8zm.7 6.2-.8 4.4c-.2 1.3-1.2 2.2-2.5 2.2h-1.9l1.5-8.7h1.8c1.1 0 2 .5 2 1.7 0 .1-.1.2-.1.4z" fill="#555"/></g></svg>