<svg viewBox="-60.363 52.645 344.73 46.642" xmlns="http://www.w3.org/2000/svg"><g transform="translate(-365.423828 -66.889801)"><path d="m375.95366 130.68554h-7.10251v25.81949h7.30501v-25.81949zm0-7.72735h-7.10251v6.15988h7.30501v-6.15988z" fill="#1a64b7"/><path d="m389.38368 134.03847v-3.35493h-6.96251v25.81949h7.30251v-13.52474c0-5.0174 1.4875-7.06486 5.14001-7.06486 2.955 0 4.21751 1.80497 4.21751 6.03489v14.55471h7.30501v-15.83219c0-5.2774-1.1175-10.67229-9.38502-10.67229-3.125 0-5.92751 1.51997-7.61751 4.03992" fill="#1a64b7"/><path d="m420.69723 123.06969h-7.10001v7.61485h-4.18001v5.0824h4.18001v14.78221c0 5.53989 4.3375 6.24987 8.12001 6.24987 1.7425 0 3.075-.0826 4.065-.24999l.17001-.025v-5.88239l-.24251.05c-.66.1324-1.3075.195-2.0975.195-2.23 0-2.71-.49249-2.71-2.74245v-12.37725h5.05001v-5.0824h-5.05001v-7.61485z" fill="#1a64b7"/><path d="m441.37626 135.66594c2.9825 0 4.5525 1.50997 5.23501 4.9974h-10.73752c.175-1.95246 1.485-4.9974 5.50251-4.9974m-12.83252 7.95484c0 8.11484 5.23501 13.57224 13.02502 13.57224 6.06501 0 10.08251-2.92495 11.95252-8.69483l.0874-.2675h-6.50751l-.04.1474c-.425 1.52247-2.63001 3.14494-5.24751 3.14494-3.76001 0-5.69751-1.98246-5.94251-6.02988h18.08253l.012-.1924c.025-.41499.04-.82748.04-1.23998 0-4.14242-1.31001-7.89734-3.67501-10.44479-2.1949-2.36746-5.22491-3.61743-8.76241-3.61743-7.54501 0-13.02502 5.72739-13.02502 13.62223" fill="#1a64b7"/><path d="m465.51379 134.94045v-4.25491h-6.96251v25.81949h7.30501v-11.65227c0-3.63243 1.1425-7.95485 6.59501-7.95485.825 0 1.82251.1 2.43001.24l.25.055v-6.89237l-.1374-.045c-.47-.15999-1.07251-.25749-1.57001-.25749-3.26 0-6.47001 2.05246-7.91001 4.9424" fill="#1a64b7"/><g fill="#1f232b"><path d="m488.30683 143.67228c0-6.01238 3.0875-9.8998 7.86501-9.8998 4.79 0 7.91751 3.55243 7.96001 9.04982.14 3.61243-.7825 6.61737-2.595 8.46733-1.36001 1.38747-3.16501 2.08996-5.36501 2.08996-5.16501 0-7.86501-4.8824-7.86501-9.70731m0-9.83231v-3.16743h-4.11751v35.5043h4.11751v-12.57475c2.025 2.20995 5.0525 3.54743 8.35001 3.54743 8.70001 0 11.79002-7.33986 11.79002-13.61974 0-8.59483-4.35001-13.52473-11.93752-13.52473-2.61751 0-6.03251 1.20248-8.20251 3.83492"/><path d="m517.19297 130.67104h-3.81251v25.81199h4.11751v-25.81199zm.1474-7.66985h-4.10501v5.43239h4.41001v-5.43239z"/><path d="m527.18838 143.67228c0-6.01238 3.08751-9.8998 7.86501-9.8998 4.79251 0 7.91752 3.55243 7.96252 9.04982.1374 3.61243-.78501 6.61737-2.59751 8.46733-1.36 1.38747-3.1625 2.08996-5.36501 2.08996-5.1625 0-7.86501-4.8824-7.86501-9.70731m0-9.83231v-3.16743h-4.115v35.5043h4.115v-12.57475c2.02501 2.20495 5.05251 3.54743 8.35001 3.54743 8.70002 0 11.79002-7.33986 11.79002-13.61974 0-8.59483-4.3525-13.52473-11.93502-13.52473-2.6175 0-6.035 1.20748-8.20501 3.83492"/><path d="m562.94753 133.77198c4.29251 0 7.04501 2.86994 7.28001 7.49235h-14.98002c.3875-2.14496 1.93001-7.49235 7.70001-7.49235m-12.12751 9.8998c0 8.56483 4.42 13.47724 12.12751 13.47724 5.87251 0 9.61002-2.82745 11.42002-8.64483l.2475-.77999h-4.54751l-.11.46249c-.785 3.25244-3.405 5.1924-7.01001 5.1924-2.1175 0-3.945-.70249-5.29-2.02996-1.52501-1.51247-2.38751-3.82242-2.48251-6.50737h19.41503l.002-.74499c0-4.8574-1.3-8.70483-3.75-11.12478-1.99761-1.96996-4.65261-2.96994-7.89512-2.96994-7.14251 0-12.12751 5.62239-12.12751 13.66973"/><path d="m583.68646 122.94369h-3.815v33.53934h4.12v-33.53934z"/><path d="m594.25488 130.67104h-3.81251v25.81199h4.11501v-25.81199zm.1426-7.61735h-4.10001v5.42989h4.40501v-5.42989z"/><path d="m604.689 133.25349v-2.58245h-4.11751v25.81199h4.11751v-13.85723c0-1.66747.0424-2.96494.5925-4.44741.745-2.03246 2.8625-4.40491 6.40001-4.40491 4.1775 0 5.88 1.75246 5.88 6.04988v16.65967h4.11751v-16.70967c0-1.87747 0-4.00992-1.365-5.99238-1.75-2.50746-4.49001-3.77743-8.14751-3.77743-3.39251 0-5.62251 1.50747-7.47751 3.24994"/><path d="m638.12354 133.77198c4.29251 0 7.04751 2.86994 7.27751 7.49235h-14.98002c.39-2.14496 1.93251-7.49235 7.70251-7.49235m-12.12501 9.8998c0 8.56483 4.4175 13.47724 12.12501 13.47724 5.87001 0 9.61002-2.82745 11.42502-8.64233l.2425-.78249h-4.54501l-.115.46249c-.7825 3.24994-3.4025 5.1924-7.00751 5.1924-2.1125 0-3.9425-.70249-5.285-2.02996-1.52751-1.51247-2.39251-3.82242-2.48751-6.50737h19.41253l.004-.74499c0-4.8574-1.2975-8.70483-3.75-11.12478-2.00001-1.96996-4.65501-2.96994-7.89502-2.96994-7.13751 0-12.12501 5.62239-12.12501 13.66973"/></g><path d="m327.29581 119.62925c.205.04 1.875.2375 2.055.3725.215.16499-.155.82498-.295 1.13497-.145.3025-13.62252 26.42948-13.62252 26.42948s-2.1025 3.39244-.525 7.29486c.8175 2.01496 2.11751 3.19244 3.02501 3.80993-.3925-.155-.7825-.32-1.17-.49999-10.14502-4.73491-14.53002-16.79717-9.79502-26.93947 3.73001-7.99485 12.01752-12.40976 20.32753-11.60228" fill="#1a64b7"/><path d="m315.31507 152.27361c0-3.96242 3.21501-7.17736 7.17751-7.17736 3.96251 0 7.17752 3.21494 7.17752 7.17736s-3.21501 7.17736-7.17752 7.17736c-3.9625 0-7.17751-3.21494-7.17751-7.17736" fill="#1a64b7"/><path d="m332.0881 120.67013c-.2025-.0526-.64-.23999-.86-.19499-.265.06-.2125.81498-.2125 1.15497v29.37443s.4725 3.96242-2.60751 6.82486c-1.595 1.48497-3.265 2.00246-4.355 2.17496.4225.0326.8475.0426 1.2775.0426 11.19252 0 20.26753-9.06982 20.26753-20.2646 0-8.82483-5.63751-16.32968-13.51002-19.11213" fill="#1f232b"/></g></svg>