<svg viewBox="8.942 51.304 146.152 31.547" xmlns="http://www.w3.org/2000/svg" xmlns:xlink="http://www.w3.org/1999/xlink"><clipPath id="a"><path d="m0 0h710.65v155h-710.65z"/></clipPath><g clip-path="url(#a)" fill-rule="evenodd" stroke-linejoin="round" stroke-miterlimit="10" stroke-width=".22489" transform="matrix(.205882 0 0 -.204742 8.839321 82.850418)"><path d="m357.05 81.225-48.88-81.74999 10.77 25.14999 32.74 54.425z" stroke="#000"/><path d="m327.34 58.45-1.73-4.125-16.14-6.275 2.15 4.325z" stroke="#000"/><path d="m341.33 152.98-6.24-34.25-3.23-1.08 4.95 27.1z" stroke="#000"/><path d="m361.35 123.05-22.39-42.925-4.95-1.95 22.19 42.725z" stroke="#000"/><path d="m332.29 104.63-2.35-4.33-20.89-8.025 1.92 4.125z" stroke="#000"/><path d="m335.96 154.08-.43-1.53-.64-.22z" fill="#ff2828" stroke="#ff2828"/><path d="m335.53 152.55-.22-2.17-1.5-.43 1.08 2.38z" fill="#ff3838" stroke="#ff3838"/><path d="m335.31 150.38-.42-2.18-2.38-.42 1.3 2.17z" fill="#f44" stroke="#f44"/><path d="m334.89 148.2-.45-2.15-3.23-.65 1.3 2.38z" fill="#ff5454" stroke="#ff5454"/><path d="m334.44 146.05-.43-2.17-3.87-.88 1.07 2.4z" fill="#ff6060" stroke="#ff6060"/><path d="m334.01 143.88-.2-2.18-4.97-.85 1.3 2.15z" fill="#ff7070" stroke="#ff7070"/><path d="m333.81 141.7-.45-2.15-5.8-1.1 1.28 2.4z" fill="#ff7c7c" stroke="#ff7c7c"/><path d="m333.36 139.55-.42-2.17-6.68-1.3 1.3 2.37z" fill="#f88" stroke="#f88"/><path d="m332.94 137.38-.43-1.95-7.32-1.75 1.07 2.4z" fill="#ff9898" stroke="#ff9898"/><path d="m332.51 135.43-.42-2.18-8.2-1.72 1.3 2.15z" fill="#ffa4a4" stroke="#ffa4a4"/><path d="m332.09 133.25-.23-2.17-9.24-1.95 1.27 2.4z" fill="#ffb4b4" stroke="#ffb4b4"/><path d="m331.86 131.08-.42-2.15-10.12-2.18 1.3 2.38z" fill="#ffc0c0" stroke="#ffc0c0"/><path d="m331.44 128.93-.43-2.18-10.77-2.17 1.08 2.17z" fill="#ffd0d0" stroke="#ffd0d0"/><path d="m331.01 126.75-.45-2.17-11.62-2.38 1.3 2.38z" fill="#ffdcdc" stroke="#ffdcdc"/><path d="m330.56 124.58-.2-2.18-12.72-2.6 1.3 2.4z" fill="#ffecec" stroke="#ffecec"/><path d="m330.36 122.4-.42-2.15-13.37-2.6 1.07 2.15z" fill="#fff8f8" stroke="#fff8f8"/><path d="m329.94 120.25-.45-1.95-14.2-3.05 1.28 2.4zm26.03 5.4-1.07-2.15-9.69-1.95z" fill="#fffcfc" stroke="#fffcfc"/><path d="m329.49 118.3-.43-2.17-15.06-3.25 1.29 2.37zm25.41 5.2-1.3-2.4-19.79-4.1 11.4 4.55z" fill="#ffecec" stroke="#ffecec"/><path d="m353.6 121.1-1.07-2.15-39.83-8.25 1.3 2.18 15.06 3.25v-.88l4.75 1.75z" fill="#ffe0e0" stroke="#ffe0e0"/><path d="m352.53 118.95-1.28-2.4-39.63-8.22 1.08 2.37z" fill="#ffd0d0" stroke="#ffd0d0"/><path d="m351.25 116.55-1.3-2.37-39.63-8.25 1.3 2.4z" fill="#ffc4c4" stroke="#ffc4c4"/><path d="m349.95 114.18-1.07-2.18-39.83-8.22 1.27 2.15z" fill="#ffb4b4" stroke="#ffb4b4"/><path d="m348.88 112-1.3-2.37-13.34-2.83.65.88-4.53-1.75-22.39-4.55 1.08 2.4z" fill="#ffa8a8" stroke="#ffa8a8"/><path d="m330.36 105.93-11.42-4.33-12.27-2.6 1.3 2.38zm17.22 3.7-1.08-2.4-13.34-2.8 1.08 2.37z" fill="#ff9898" stroke="#ff9898"/><path d="m318.94 101.6-11.42-4.55-2.15-.45 1.3 2.4zm27.56 5.63-1.29-2.15-13.35-2.83 1.3 2.18z" fill="#ff8c8c" stroke="#ff8c8c"/><path d="m307.52 97.05-2.35-.875.2.425zm37.69 8.03-1.28-2.4-13.14-2.83 1.07 2.4z" fill="#ff8080" stroke="#ff8080"/><path d="m343.93 102.68-1.07-2.38-13.37-2.825 1.3 2.375z" fill="#ff7070" stroke="#ff7070"/><path d="m342.86 100.3-1.3-2.175-13.35-2.825 1.28 2.175z" fill="#ff6464" stroke="#ff6464"/><path d="m341.56 98.125-1.3-2.375-13.15-2.825 1.1 2.375z" fill="#ff5454" stroke="#ff5454"/><path d="m340.26 95.75-1.08-2.4-13.34-2.8 1.27 2.375z" fill="#ff4848" stroke="#ff4848"/><path d="m339.18 93.35-1.3-2.15-13.34-2.825 1.3 2.175z" fill="#ff3838" stroke="#ff3838"/><path d="m337.88 91.2-1.07-2.4-13.34-2.825 1.07 2.4z" fill="#ff2c2c" stroke="#ff2c2c"/><path d="m336.81 88.8-1.28-2.375-13.36-2.825 1.3 2.375z" fill="#ff1c1c" stroke="#ff1c1c"/><path d="m335.53 86.425-1.29-2.175-13.15-2.825 1.08 2.175z" fill="#ff1010" stroke="#ff1010"/><path d="m334.24 84.25-1.08-2.375-13.34-2.825 1.27 2.375z" fill="#f00" stroke="#f00"/><path d="m333.16 81.875-1.3-2.4-13.34-2.8 1.3 2.375zm18.52 1.95-.23-.225-.65-.225z" fill="#ff0c0c" stroke="#ff0c0c"/><path d="m331.86 79.475-1.07-2.175-13.35-2.8 1.08 2.175zm19.59 4.125-1.3-2.375-10.97-2.175 11.62 4.325z" fill="#ff1818" stroke="#ff1818"/><path d="m350.15 81.225-1.5-2.4-32.51-6.725 1.3 2.4 13.35 2.8-1.08-1.95 9.47 3.7z" fill="#ff2828" stroke="#ff2828"/><path d="m348.65 78.825-1.3-2.375-32.28-6.725 1.07 2.375z" fill="#ff3434" stroke="#ff3434"/><path d="m347.35 76.45-1.5-2.175-32.08-6.725 1.3 2.175z" fill="#f44" stroke="#f44"/><path d="m345.85 74.275-1.29-2.375-32.06-6.725 1.27 2.375z" fill="#ff5050" stroke="#ff5050"/><path d="m344.56 71.9-1.5-2.4-31.66-6.725 1.1 2.4z" fill="#ff6060" stroke="#ff6060"/><path d="m343.06 69.5-1.3-2.375-31.64-6.5 1.28 2.15z" fill="#ff6c6c" stroke="#ff6c6c"/><path d="m341.76 67.125-1.5-2.375-31.21-6.525 1.07 2.4z" fill="#ff7c7c" stroke="#ff7c7c"/><path d="m340.26 64.75-1.3-2.4-9.9-1.95.43.875-4.95-1.75-16.79-3.675 1.3 2.375z" fill="#f88" stroke="#f88"/><path d="m324.54 59.525-11.42-4.55-6.67-1.3 1.3 2.175zm14.42 2.825-1.5-2.375-9.47-1.95 1.07 2.375z" fill="#ff9494" stroke="#ff9494"/><path d="m313.12 54.975-7.32-2.8.65 1.5zm24.34 5-1.5-2.175-8.85-1.95.88 2.175z" fill="#ffa4a4" stroke="#ffa4a4"/><path d="m335.96 57.8-1.3-2.375-8.62-1.95 1.07 2.375z" fill="#ffb0b0" stroke="#ffb0b0"/><path d="m334.66 55.425-1.5-2.4-8.19-1.725 1.07 2.175z" fill="#ffc0c0" stroke="#ffc0c0"/><path d="m333.16 53.025-1.3-2.375-7.74-1.525.85 2.175z" fill="#fcc" stroke="#fcc"/><path d="m331.86 50.65-1.5-2.4-7.32-1.5 1.08 2.375z" fill="#ffdcdc" stroke="#ffdcdc"/><path d="m330.36 48.25-1.3-2.375-6.89-1.3.87 2.175z" fill="#ffe8e8" stroke="#ffe8e8"/><path d="m329.06 45.875-1.5-2.375-6.47-1.3 1.08 2.375z" fill="#fff8f8" stroke="#fff8f8"/><path d="m327.56 43.5-1.3-2.175-6.02-1.3.85 2.175z" fill="#fffcfc" stroke="#fffcfc"/><path d="m326.26 41.325-1.49-2.375-5.6-1.325 1.07 2.4z" fill="#fff0f0" stroke="#fff0f0"/><path d="m324.77 38.95-1.53-2.4-4.95-1.075.88 2.15z" fill="#ffe0e0" stroke="#ffe0e0"/><path d="m323.24 36.55-1.27-2.375-4.75-1.1 1.07 2.4z" fill="#ffd4d4" stroke="#ffd4d4"/><path d="m321.97 34.175-1.53-2.4-4.3-.85 1.08 2.15z" fill="#ffc4c4" stroke="#ffc4c4"/><path d="m320.44 31.775-1.27-2.375-3.88-.65.85 2.175z" fill="#ffb8b8" stroke="#ffb8b8"/><path d="m319.17 29.4-1.53-2.375-3.44-.675 1.09 2.4z" fill="#ffa8a8" stroke="#ffa8a8"/><path d="m317.64 27.025-1.27-2.175-3.02-.65.85 2.15z" fill="#ff9c9c" stroke="#ff9c9c"/><path d="m316.37 24.85-1.52-2.4-2.58-.65 1.08 2.4z" fill="#ff8c8c" stroke="#ff8c8c"/><path d="m314.85 22.45-1.28-2.375-2.17-.425.87 2.15z" fill="#ff8080" stroke="#ff8080"/><path d="m313.57 20.075-1.52-2.375-1.73-.45 1.08 2.4z" fill="#ff7474" stroke="#ff7474"/><path d="m312.05 17.7-1.28-2.4-1.52-.2 1.07 2.15z" fill="#ff6464" stroke="#ff6464"/><path d="m310.77 15.3-1.52-2.375-.85-.225.85 2.4z" fill="#ff5858" stroke="#ff5858"/><path d="m309.25 12.925-1.5-2.4h-.43l1.08 2.175z" fill="#ff4848" stroke="#ff4848"/><path d="m307.75 10.525-1.3-2.15v-.225l.87 2.375z" fill="#ff3c3c" stroke="#ff3c3c"/><path d="m306.45 8.375-.2-.45.2.225z" fill="#ff2c2c" stroke="#ff2c2c"/><path d="m334.89 150.8-28.44-53.325 29.28 11.275-28.83-55.5 23.46 8.875-21.31-48.775 41.33 69.375-21.74-8.45 26.04 50.075-26.27-9.97zm1.07 3.28-6.9-38.83 26.91 10.4-26.26-50.3 21.97 8.475-45.43-75.9 23.24 53.35-23.69-9.1 29.09 55.505-29.72-11.505z" fill="#f00" stroke="#f00"/><g stroke="#000"><path d="m.49975 113.73h17.01625v-16.905l14.843 16.905h20.04l-18.965-19.505 20.889-32.525h-20.24l-12.494 20.825-4.073-4.35v-16.475h-17.01625z"/><path d="m60.57 61.7h17.017v52.025h-17.017z"/><path d="m88.132 113.73h15.938l18.52-28.405-.65 11.925v16.48h16.14v-52.03h-15.94l-18.52 28.4.65-11.925v-16.475h-16.138z"/><path d="m164.79 101.6v-27.75h3.65l3.68.2 2.99 1.1 2.38 2.15 1.72 2.625 1.08 3.45.42 4.55-.2 4.125-.87 3.25-1.08 2.6-1.72 1.75-2.38 1.08-2.79.65-3.65.22zm-17.01 12.13h22.81l5.4-.2 4.72-.88 4.32-1.52 3.65-2.15 3.23-2.6 2.37-3.48 1.95-3.9 1.07-4.775.43-5.425-.43-6.075-1.3-5.2-1.72-4.55-2.57-3.675-3.25-2.825-3.88-2.175-4.29-1.525-4.75-.85-5.37-.225h-22.39z"/><path d="m204.62 113.73h42.41v-12.13h-25.41v-7.375h21.31v-12.15h-21.31v-8.225h26.28v-12.15h-43.28z"/><path d="m272.64 101.6v-10.4h6.7l2.8.2 2.34.65 1.53.875 1.07 1.3.2 1.95-.2 1.95-1.07 1.525-1.3 1.08-1.95.65-2.35.22zm-16.99 12.13h24.31l6.05-.2 4.95-.65 4.09-1.1 3-1.5 2.38-2.18 1.5-2.6.87-3.02.2-3.48-.2-3.475-1.07-3.25-1.73-2.6-2.37-2.175-3.22-1.3 2.14-.875 1.93-.85 1.52-1.3 1.28-1.525 1.1-2.375.62-3.05.23-3.9v-3.475-2.6l.22-1.725.43-1.075 1.07-.225v-1.525h-17.22l-.45 1.75-.2 3.025-.22 4.325-.2 3.05-.45 2.375-.85 1.525-1.72 1.3-2.38.65-3.45.225h-5.17v-18.225h-16.99z"/><path d="m359.42 113.73h20.67l9.04-32.505 9.27 32.505h20.44v-52.03h-15.29v15.825l.23 8.25.85 9.325-9.47-33.4h-11.85l-9.47 33.4h-.2l.85-7.6.23-8.225v-17.575h-15.3z"/><path d="m453.08 102.48-3-.45-2.38-1.3-1.94-1.955-1.3-2.375-.85-2.6-.43-2.825-.22-3.05.22-2.375.2-2.6.65-2.6 1.08-2.375 1.3-1.95 1.72-1.525 2.15-1.1 2.8-.425 3.02.425 2.37 1.1 1.73 1.725 1.5 2.175.85 2.825.65 3.25.22 3.45-.22 3.05-.65 3.025-.85 2.825-1.5 2.175-1.95 1.95-2.37 1.08zm0 12.77 5.82-.42 5.17-1.53 4.3-2.17 3.65-2.8 3.02-3.25 2.38-3.93 1.72-4.1.85-4.55.42-4.575-.42-5.625-1.28-5-1.94-4.325-2.58-3.9-3.45-3.025-3.67-2.6-4.3-1.75-4.75-1.075-4.94-.45-5.18.45-4.72 1.075-4.32 1.75-3.65 2.6-3.22 3.25-2.6 3.675-1.93 4.55-1.07 5-.45 5.625.65 5.85 1.3 5.2 2.37 4.78 3.23 3.9 4.09 3.05 4.53 2.37 5.17 1.53z"/><path d="m504.55 101.6v-10.4h6.67l3 .2 2.15.65 1.72.875.88 1.3.42 1.95-.42 1.95-.88 1.525-1.49 1.08-1.93.65-2.17.22zm-17.01 12.13h24.53l6.02-.2 4.98-.65 3.87-1.1 3.22-1.5 2.15-2.18 1.5-2.6.88-3.02.42-3.48-.42-3.475-.88-3.25-1.72-2.6-2.58-2.175-3.22-1.3 2.37-.875 1.73-.85 1.7-1.3 1.3-1.525.87-2.375.63-3.05.22-3.9v-3.475-2.6l.23-1.725.65-1.075.85-.225v-1.525h-17.22l-.23 1.75-.42 3.025-.23 4.325v3.05l-.42 2.375-1.07 1.525-1.5 1.3-2.6.65-3.45.225h-5.15v-18.225h-17.01z"/><path d="m569.14 115.25 4.5-.42 4.33-.88 3.87-1.52 3.45-2.15 3-2.6 2.59-3.48 1.73-3.9 1.07-4.55h-16.14l-1.1 3.025-1.92 1.955-2.58 1.3-3.02.45-3.02-.45-2.58-1.53-1.95-2.15-1.27-3.05-.88-3.9-.2-4.325.2-3.05.43-3.025 1.07-2.6 1.3-2.175 1.95-1.725 2.58-1.1 3.44-.425 2.15.225 2.15.85 1.95 1.3 1.5 1.75.88 1.95h-7.55v11.275h23.26v-28.85h-10.77l-.65 5.225-1.95-1.95-2.57-1.75-3.02-1.525-3.65-.85-4.52-.45-4.3.45-4.32.85-3.88 1.75-3.45 2.175-2.99 3.025-2.6 3.675-1.93 4.125-1.3 5.2-.42 5.65.42 6.075 1.5 5.4 2.38 4.78 3.02 4.12 3.87 3.25 4.73 2.38 5.39 1.52z"/><path d="m627.04 98.125-5.15-18.65h10.75zm-8.39 15.605h17.24l18.51-52.03h-16.79l-2.17 6.725h-16.79l-1.93-6.725h-16.59z"/><path d="m660.2 113.73h15.94l18.52-28.405-.65 11.925v16.48h16.37v-52.03h-15.95l-18.51 28.4.65-11.925v-16.475h-16.37z"/><path d="m661.92 35.9h3.4483v17.35h-3.4483z"/><path d="m669.9 53.25h3.44l7.1-11.7v11.7h3.25v-17.35h-3.45l-7.12 11.5v-11.5h-3.22z"/><path d="m695.96 53.475 2.8-.45 2.37-1.3.62-.875.65-1.075.43-1.3-3.42-.875-.23.875-.42.65-.65.65-.65.425-.85.225-.88.225-.85-.225-.87-.225-.65-.425-.65-.65-1.08-1.725-.2-2.6.2-2.825 1.08-1.95.45-.65.85-.425.87-.225h.85.88l.85.225.65.65.65.65.42.85.23 1.1 3.42-.875-1.08-2.6-1.49-1.75-1.95-1.075-2.58-.225-2.15.225-1.95.875-1.49 1.3-1.3 1.725-.63 2.175-.45 2.375.45 2.825.63 2.175 1.3 1.725 1.49 1.3 1.95.875z"/><path d="m706.93 35.9h3.4483v3.25h-3.4483z"/></g></g></svg>