<svg viewBox="51.793 59.464 221.57 31.218" xmlns="http://www.w3.org/2000/svg"><path d="m90.554 89.441v-5.982h1.252l2.142 5.07h.021l2.154-5.07h1.25v5.982h-.712v-5.536h-.021l-2.336 5.536h-.679l-2.337-5.536h-.021v5.536z"/><path d="m101.392 89.441h.709v-5.982h-.709z"/><path d="m106.831 88.992h1.508c1.722 0 2.65-.928 2.65-2.544 0-1.614-.928-2.542-2.65-2.542h-1.508zm-.711-5.533h2.198c2.413 0 3.381 1.391 3.381 2.989 0 1.601-.968 2.993-3.381 2.993h-2.198z"/><path d="m115.028 87.765c.302.913.991 1.309 2.219 1.309.97 0 1.551-.47 1.551-1.192 0-1.607-4.212-.977-4.212-2.958 0-.887.797-1.548 2.24-1.548 1.228 0 2.132.512 2.489 1.434l-.614.14c-.279-.665-.884-1.128-1.875-1.128-.904 0-1.53.397-1.53 1.102 0 .406.15.695 1.584 1.11 2.187.63 2.627 1.044 2.627 1.906 0 1.02-1.108 1.583-2.369 1.583-1.486 0-2.337-.505-2.766-1.599z"/><path d="m122.148 83.458h5.32v.447h-2.307v5.535h-.709v-5.535h-2.304z"/><path d="m131.389 86.26h1.916c1.035 0 1.681-.441 1.681-1.179 0-.737-.559-1.176-1.681-1.176h-1.916zm4.598 3.181h-.775l-1.809-2.735h-2.014v2.735h-.712v-5.982h2.628c1.531 0 2.392.645 2.392 1.622 0 .788-.506 1.309-1.616 1.526z"/><path d="m139.662 89.441v-5.982h4.438v.446h-3.729v2.204h2.683v.448h-2.683v2.435h3.932v.449z"/><path d="m150.971 87.038-1.293-3.134h-.021l-1.283 3.134zm-1.842-3.58h1.088l2.454 5.982h-.753l-.786-1.956h-2.941l-.797 1.956h-.752z"/><path d="m155.828 89.441v-5.982h1.25l2.144 5.07h.023l2.154-5.07h1.248v5.982h-.71v-5.536h-.022l-2.338 5.536h-.678l-2.337-5.536h-.022v5.536z"/><path d="m172.104 86.342h1.637c1.346 0 1.918-.43 1.918-1.22 0-.786-.572-1.217-1.918-1.217h-1.637zm-.71 3.099v-5.983h2.347c1.854 0 2.628.663 2.628 1.664 0 1.004-.774 1.665-2.628 1.665h-1.637v2.654z"/><path d="m182.897 87.038-1.291-3.134h-.021l-1.283 3.134zm-1.843-3.58h1.09l2.455 5.982h-.755l-.785-1.956h-2.94l-.796 1.956h-.755z"/><path d="m188.466 86.26h1.917c1.034 0 1.681-.441 1.681-1.179 0-.737-.561-1.176-1.681-1.176h-1.917zm4.599 3.181h-.775l-1.81-2.735h-2.014v2.735h-.711v-5.982h2.628c1.529 0 2.392.645 2.392 1.622 0 .788-.506 1.309-1.616 1.526z"/><path d="m195.598 83.458h5.322v.447h-2.306v5.535h-.711v-5.535h-2.305z"/><path d="m204.129 83.458h1.196l3.695 4.987h.021v-4.987h.71v5.982h-.731l-4.159-5.535h-.02v5.535h-.712z"/><path d="m213.704 89.441v-5.982h4.439v.446h-3.727v2.204h2.682v.448h-2.682v2.435h3.931v.449z"/><path d="m222.202 86.26h1.919c1.034 0 1.679-.441 1.679-1.179 0-.737-.558-1.176-1.679-1.176h-1.919zm4.601 3.181h-.777l-1.808-2.735h-2.016v2.735h-.711v-5.982h2.63c1.529 0 2.39.645 2.39 1.622 0 .788-.506 1.309-1.615 1.526z"/><path d="m230.402 87.765c.3.913.989 1.309 2.217 1.309.969 0 1.551-.47 1.551-1.192 0-1.607-4.211-.977-4.211-2.958 0-.887.797-1.548 2.239-1.548 1.229 0 2.133.512 2.49 1.434l-.615.14c-.28-.665-.884-1.128-1.875-1.128-.903 0-1.53.397-1.53 1.102 0 .406.154.695 1.584 1.11 2.187.63 2.63 1.044 2.63 1.906 0 1.02-1.111 1.583-2.371 1.583-1.486 0-2.337-.505-2.768-1.599z"/><path d="m239.146 88.694v.746l-.677 1.242h-.422l.626-1.242h-.454v-.746z"/><path d="m247.851 83.458h.709v5.534h3.469v.448h-4.178z"/><path d="m254.989 89.441h.927v-.746h-.927z"/><path d="m260.539 86.342h1.635c1.348 0 1.919-.43 1.919-1.22 0-.786-.571-1.217-1.919-1.217h-1.635zm-.712 3.099v-5.983h2.347c1.854 0 2.628.663 2.628 1.664 0 1.004-.774 1.665-2.628 1.665h-1.635v2.654z"/><path d="m266.775 89.441h.926v-.746h-.926z"/><path d="m90.527 59.484h6.644l5.789 15.824 5.569-15.769h6.867v19.905h-4.247l-.028-15.136-5.569 15.136h-5.101l-5.788-15.495v15.495h-4.136z"/><path d="m125.595 71.614h5.292l-2.701-6.948zm.082-11.912h4.826l8.546 19.906h-4.963l-1.683-4.52h-8.159l-1.792 4.52h-4.907z"/><path d="m140.124 69.657c0-5.212 3.612-10.064 8.823-10.064h12.267v3.64h-11.109c-3.088 0-4.687 3.281-4.743 6.368-.055 3.115 1.49 6.59 4.632 6.59h6.671v-5.018h-6.808v-3.281h11.606v11.662h-13.178c-5.018 0-8.161-4.879-8.161-9.897"/><path d="m168.383 78.479c-6.175-3.006-6.092-14.474 0-17.674 1.736-.881 2.95-1.102 4.879-1.102h8.962v3.502h-8.271c-1.406 0-2.401.357-3.365 1.351-.936.992-1.324 1.984-1.267 3.391h13.011v3.501h-12.957c0 1.268.33 2.123 1.158 3.033.855.992 1.765 1.572 3.117 1.572h8.682v3.445h-9.649c-1.709 0-2.754-.274-4.3-1.019"/><path d="m190.052 72.469c0 1.13.221 1.875.883 2.728 1.019 1.27 2.372 1.461 4.024 1.461h6.343v3.228h-7.143c-3.638 0-7.003-.662-8.519-3.861-.551-1.213-.688-2.04-.688-3.417v-12.877h5.1z"/><path d="m208.853 72.469c0 1.13.221 1.875.883 2.728 1.021 1.27 2.371 1.461 4.026 1.461h6.34v3.228h-7.139c-3.641 0-7.004-.662-8.52-3.861-.551-1.213-.688-2.04-.688-3.417v-12.877h5.098z"/><path d="m230.635 71.614h5.294l-2.702-6.948zm.082-11.912h4.824l8.548 19.906h-4.964l-1.68-4.52h-8.162l-1.792 4.52h-4.907z"/><path d="m247.12 59.73h6.369l9.403 14.915v-14.915h4.824v19.961h-6.314l-9.621-14.584.083 14.501h-4.717z"/><path d="m69.308 76.698 5.346-5.413 9.764 12.897v-24.718h-32.625v21.616l9.979-12.789z"/><path d="m63.078 73.685-11.285 9.266v6.487h4.924l12.095-12.241z"/><path d="m84.418 84.597-7.807-5.519-16.91 10.36h24.717z"/><path d="m271.48 61.388h.134c.171 0 .287-.067.287-.182 0-.124-.106-.191-.268-.191-.057 0-.115.01-.153.01zm-.019.87h-.469v-1.52c.106-.019.354-.048.67-.048.343 0 .496.048.612.115.095.067.162.181.162.334s-.144.287-.354.345v.019c.172.057.268.172.315.392.048.22.077.305.105.363h-.525c-.048-.058-.076-.191-.105-.325-.029-.153-.105-.23-.258-.23h-.153zm-.985-.774c0 .688.507 1.233 1.195 1.233s1.195-.545 1.195-1.243c0-.678-.507-1.233-1.204-1.233-.679 0-1.186.555-1.186 1.243m2.887-.01c0 .918-.746 1.654-1.692 1.654s-1.701-.736-1.701-1.654c0-.908.755-1.644 1.701-1.644s1.692.736 1.692 1.644"/></svg>