<svg clip-rule="evenodd" fill-rule="evenodd" stroke-linejoin="round" stroke-miterlimit="1.41421" viewBox="0 0 60 62" xmlns="http://www.w3.org/2000/svg" xmlns:xlink="http://www.w3.org/1999/xlink"><clipPath id="a"><path clip-rule="evenodd" d="m520.349 52.823h59.221v59.221h-59.221z"/></clipPath><g clip-path="url(#a)" transform="translate(-520 -51)"><path d="m549.958 112.044c3-3.989 7.161-4.802 12.326-5.294 6.108-.581 8.834-1.205 12.326-5.1 2.192-2.441 3.718-6.406 3.718-10.001 0-2.506-.13-4.575-1.368-8.17-2.654-7.697-3.49-10.589 2.609-17.649l-12.718-12.747c-2.741 2.29-8.676 6.276-16.893-.259-8.283 6.602-14.021 2.484-16.892.259l-12.72 12.747c6.068 7.06 5.501 9.972 2.609 17.649-1.303 3.466-1.368 5.753-1.368 8.17 0 3.6 1.402 7.55 3.718 10.001 3.607 3.82 6.329 4.512 12.326 5.1 5.347.52 9.327 1.372 12.327 5.294z" fill="#fefefe"/><path d="m549.958 110.474c3.067-3.465 7.708-4.236 12.393-4.706 5.868-.588 8.16-1.198 11.412-4.706 2.112-2.276 3.523-5.818 3.523-9.413 0-2.41-.386-5.345-1.5-8.367-3.038-8.234-2.356-11.632 2.412-17.385l-11.479-11.506s-7.368 6.864-16.761-.391c-9.327 7.255-16.762.391-16.762.391l-11.479 11.506c4.884 5.753 5.582 9.213 2.414 17.385-1.176 3.029-1.5 5.957-1.5 8.367 0 3.53 1.387 7.238 3.521 9.413 3.37 3.436 5.563 4.056 11.414 4.706 4.697.523 9.327 1.241 12.392 4.706z" fill="#373535"/><path d="m549.958 107.664c4.761-3.072 7.173-3.007 12.067-3.725 4.243-.624 7.022-.96 10.109-4.053 4.368-4.38 3.948-10.601 1.303-17.648-3.065-8.172-.358-12.943 2.217-16.212l-9.129-9.151s-7.174 5.688-16.567-.458c-9.392 6.146-16.568.458-16.568.458l-9.136 9.151c2.551 3.269 5.354 7.976 2.224 16.212-2.688 7.071-3 13.268 1.304 17.648 3.064 3.115 5.817 3.439 10.108 4.053 5.024.718 7.306.653 12.068 3.725z" fill="#fefefe"/><path d="m549.958 104.722c5.16-2.866 8.299-2.573 14.088-3.464 12.326-1.896 8.347-14.313 8.347-14.313.067-1.179-3.065-6.931-2.674-12.682h-39.523c.456 5.686-2.609 11.503-2.674 12.682 0 0-3.914 12.353 8.348 14.313 6.175.987 8.928.598 14.088 3.464z" fill="#ec3438"/><g fill="#373535"><path d="m536.918 63.199h1.532v3.257h1.584v-3.257h1.605v8.23h-1.605v-3.521h-1.584v3.521h-1.532"/><path d="m543.305 63.199h1.663v8.232h-1.663z"/><path d="m566.378 62.906c2.35 0 2.525 1.486 2.494 2.648h-1.632c-.007-1.815-1.783-1.536-1.769-.413.01.624 1.15 1.284 2.095 1.867.848.521 1.436 1.373 1.462 2.294.007.809-.353 2.333-2.65 2.333-2.332 0-2.52-1.742-2.529-2.731h1.565c-.003 2.018 1.893 1.776 1.905.456 0 0 .115-.617-.926-1.241-1.174-.703-2.494-1.229-2.465-2.942 0-.475.103-2.271 2.45-2.271z"/><path d="m550.91 63.199h1.654v6.943h1.795v1.289h-3.449"/><path d="m546.631 63.185h1.654v6.943h1.795v1.286h-3.449"/><path d="m531.168 63.166v8.306h1.663v-2.707c.463-.022 3.173.266 3.238-2.662.086-3.245-2.664-2.937-3.238-2.937zm1.663 1.248v2.976c.243 0 1.714.338 1.707-1.515-.005-1.646-1.368-1.461-1.707-1.461z"/><path d="m558.463 63.166v8.306h1.663v-2.707c.464-.022 3.173.266 3.236-2.662.088-3.245-2.662-2.937-3.236-2.937zm1.663 1.248v2.976c.245 0 1.712.338 1.707-1.515-.005-1.646-1.368-1.461-1.707-1.461z"/><path d="m555.175 63.198h1.661v8.231h-1.661z"/></g><path d="m558.305 87.269c1.56.326 1.029 2.393.487 3.871-.002.005-.005.01-.007.014-.55 1.493-1.654 3.111-3.01 2.748-.9-.242-.888-1.512-.569-2.762.128-.497.305-.994.492-1.418.572-1.301 1.45-2.693 2.607-2.453zm7.925-4.083c.288-.837-.123-3.746-3-4.706-5.379-1.8-9.49 1.013-11.609 6.96-.658 1.848-1.296 3.871-1.397 5.7-.125 2.263.569 4.226 3.058 5.184 2.82 1.085 7.6.653 9.784-2.942.416-.68.778-1.45 1.047-2.242.869-2.573.739-5.41-1.927-6.377-3.077-1.116-5.04.547-5.04.547s1.322-4.387 3.379-4.387c1.337 0 1.041 1.92 1.041 1.92" fill="#fefefe"/><path d="m541.114 87.269c1.56.326 1.029 2.393.484 3.871 0 .005-.002.01-.004.014-.55 1.493-1.654 3.111-3.008 2.748-.9-.242-.871-1.512-.54-2.762.132-.497.31-.994.497-1.418.574-1.301 1.414-2.693 2.571-2.453zm4.924-8.789c-5.544-1.831-9.52 1.142-11.608 6.96-.663 1.848-1.299 3.871-1.4 5.7-.124 2.263.572 4.226 3.06 5.184 2.82 1.085 7.601.653 9.785-2.942.413-.68.778-1.45 1.047-2.242.868-2.573.739-5.41-1.928-6.377-3.079-1.116-5.04.547-5.04.547s1.323-4.387 3.377-4.387c1.339 0 1.044 1.92 1.044 1.92l4.663.343c.288-.837-.12-3.756-3-4.706z" fill="#fefefe"/></g></svg>