<svg viewBox="-4.161 166.181 168.978 110.551" xmlns="http://www.w3.org/2000/svg"><path d="m76.239 204.449 2.369-3.543h33.525l.199 3.543h17.144l8.504-21.26h-26.843l.797 14.173h-30.957l9.476-14.173h-23.339l-8.505 21.26z" fill="#f30"/><path d="m56.909 208.701-6.803 17.007h70.866l6.803-17.007z" fill="#f30"/><path d="m111.137 183.189.797 14.173h-30.957l9.476-14.173z" fill="#fff"/><path d="m58.609 204.449h17.63l2.369-3.543h33.525l.199 3.543h17.144l-1.701 4.252h-70.866z" fill="#fff"/><path d="m26.868 229.701-10.808 27.021-10.809-27.021c-.28-.699-.957-1.158-1.711-1.158h-6.85c-.602 0-1.013.608-.79 1.166l14.094 35.235c.28.7.957 1.158 1.711 1.158h8.709c.754 0 1.431-.458 1.711-1.158l14.094-35.235c.223-.558-.188-1.166-.79-1.166h-6.85c-.754 0-1.431.459-1.711 1.158z"/><path d="m42.626 252.283c0 5.098 3.47 7.38 6.766 7.38s6.765-2.282 6.765-7.38-3.469-7.38-6.765-7.38-6.766 2.282-6.766 7.38zm21.364 0c0 8.102-5.858 14.67-14.598 14.67s-14.599-6.568-14.599-14.67c0-8.101 5.859-14.669 14.599-14.669s14.598 6.568 14.598 14.669z"/><path d="m84.815 237.614c-3.181-.04-6.244 1.207-8.493 3.458l-.338-1.429c-.163-.691-.78-1.179-1.49-1.179h-3.692c-.658 0-1.191.533-1.191 1.191v35.887c0 .657.533 1.19 1.191 1.19h5.839c.658 0 1.191-.533 1.191-1.19v-10.87c2.007 1.52 4.466 2.323 6.983 2.281 8.741 0 14.457-6.568 14.457-14.67 0-8.101-5.716-14.669-14.457-14.669zm-.125 22.049c-3.329 0-6.977-2.282-6.977-7.38s3.648-7.38 6.977-7.38 6.688 2.282 6.688 7.38-3.359 7.38-6.688 7.38z"/><path d="m164.663 264.917-10.49-13.685 8.773-11.586c.342-.452.067-1.106-.496-1.176-.031-.004-.061-.006-.092-.006h-6.446c-.71 0-1.38.332-1.808.899l-7.703 10.172v-19.801c0-.658-.533-1.191-1.191-1.191h-5.839c-.658 0-1.191.533-1.191 1.191v35.178c0 .657.533 1.19 1.191 1.19h5.839c.658 0 1.191-.533 1.191-1.19v-11.634l9.15 11.937c.429.56 1.095.888 1.8.888l6.727-.001c.568 0 .922-.614.638-1.105-.016-.028-.033-.055-.053-.08z"/><path d="m117.511 237.614c-7.054 0-11.319 3.95-12.447 8.017-.168.679.35 1.335 1.05 1.327h5.498c.648.004 1.237-.379 1.494-.974.629-1.493 2.35-2.288 4.606-2.288 3.311 0 4.856 1.571 4.856 3.542v1.511l-9.631 1.247c-4.848.675-9.117 3.605-9.117 8.56 0 4.336 4.068 8.397 10.276 8.397 3.196.125 6.289-1.146 8.473-3.482l.354 1.46c.166.687.781 1.171 1.487 1.171h5.189c.658 0 1.191-.533 1.191-1.191v-16.829c-.425-5.575-4.055-10.468-13.279-10.468zm5.057 17.283c0 4.37-3.881 6.367-6.663 6.367-2.543 0-3.784-1.525-3.784-3.158 0-2.14 1.596-3.04 3.606-3.321l6.841-.957z"/><path d="m67.114 183.189h36.633l6.803-17.008h-70.866l-17.008 42.52h34.233z" fill="#008100"/></svg>